<?xml version="1.0" standalone="no"?>
<!DOCTYPE svg PUBLIC "-//W3C//DTD SVG 20010904//EN"
 "http://www.w3.org/TR/2001/REC-SVG-20010904/DTD/svg10.dtd">
<svg version="1.0" xmlns="http://www.w3.org/2000/svg"
 width="1024.000000pt" height="1024.000000pt" viewBox="0 0 1024.000000 1024.000000"
 preserveAspectRatio="xMidYMid meet">
<metadata>
Created by potrace 1.14, written by Peter Selinger 2001-2017
</metadata>
<g transform="translate(0.000000,1024.000000) scale(0.100000,-0.100000)"
fill="#000000" stroke="none">
<path d="M0 5120 l0 -5120 5120 0 5120 0 0 5120 0 5120 -5120 0 -5120 0 0
-5120z m2809 3984 c291 -65 453 -326 385 -624 -16 -73 -65 -164 -117 -218
-110 -114 -337 -179 -538 -153 -270 35 -426 162 -474 386 -69 329 130 589 477
623 98 10 179 5 267 -14z m3149 -901 l2 -643 1158 -2 1157 -3 0 -535 0 -535
-1158 -3 -1158 -2 3 -813 3 -812 27 -81 c62 -183 174 -276 393 -327 87 -20
120 -21 993 -24 l902 -4 0 -539 0 -540 -1109 0 c-679 0 -1160 4 -1238 10 -643
53 -968 298 -1093 825 -47 195 -50 279 -50 1322 l0 983 -505 0 -505 0 0 540 0
540 505 0 505 0 0 645 0 645 583 -2 582 -3 3 -642z m-2748 -2753 l0 -2110
-582 2 -583 3 -3 2095 c-1 1152 0 2101 3 2108 3 9 130 12 585 12 l580 0 0
-2110z m-952 -2820 c267 -29 488 -133 596 -280 49 -66 90 -147 101 -197 l7
-33 -292 0 -291 0 -52 53 c-89 92 -238 127 -396 93 -169 -36 -261 -150 -261
-326 0 -173 89 -287 255 -326 154 -36 312 0 402 93 l52 53 291 0 292 0 -7 -32
c-23 -102 -113 -235 -207 -304 -187 -138 -416 -191 -768 -181 -206 7 -330 28
-461 78 -272 105 -419 322 -419 619 0 387 237 623 688 685 120 16 341 18 470
5z m2112 -15 c338 -65 539 -229 606 -495 23 -88 23 -273 1 -360 -74 -284 -303
-456 -673 -505 -146 -19 -351 -19 -496 0 -243 32 -387 93 -514 220 -88 87
-130 158 -161 275 -24 88 -24 290 0 379 52 193 186 342 377 421 86 35 210 67
315 79 118 14 443 6 545 -14z m1900 -452 l375 -446 3 446 2 447 285 0 285 0 0
-670 0 -670 -339 0 -339 0 -374 447 -373 446 -3 -446 -2 -447 -285 0 -285 0 0
670 0 670 338 0 337 0 375 -447z m2770 282 l0 -165 -260 0 -260 0 0 -505 0
-505 -285 0 -285 0 0 505 0 505 -265 0 -265 0 0 165 0 165 810 0 810 0 0 -165z"/>
<path d="M3940 2267 c-162 -38 -260 -161 -260 -327 0 -142 79 -261 205 -310
84 -33 253 -34 336 -1 79 30 132 80 171 159 30 60 33 76 33 152 0 76 -3 92
-33 152 -59 120 -154 176 -312 184 -49 2 -108 -2 -140 -9z"/>
</g>
</svg>
